<svg width="124" height="124" viewBox="0 0 124 124" fill="none" xmlns="http://www.w3.org/2000/svg">
<path d="M37.0465 25.6186C36.6394 25.6186 36.2667 25.3468 36.156 24.9348C36.0244 24.4428 36.3159 23.936 36.8091 23.8056C37.4192 23.642 38.0305 23.4932 38.6418 23.3579C39.1412 23.2509 39.632 23.5633 39.7415 24.0602C39.8509 24.5572 39.5373 25.0504 39.0391 25.1599C38.4537 25.289 37.8694 25.4329 37.2864 25.5891C37.2052 25.6088 37.1253 25.6186 37.0465 25.6186Z" fill="#BA945E"/>
<path d="M37.9383 24.4576C37.8276 23.9656 38.1474 23.4613 38.6394 23.3629C39.1314 23.2522 39.6234 23.5597 39.7464 24.064C39.8448 24.556 39.5373 25.048 39.0453 25.1587C38.9715 25.171 38.91 25.1833 38.8362 25.1833C38.418 25.1833 38.0367 24.8881 37.9383 24.4576Z" fill="#BA945E"/>
<path d="M47.6799 106.634C46.7328 106.634 45.7734 106.597 44.8386 106.535C44.3343 106.499 43.9653 106.093 43.9776 105.601C43.9776 105.588 43.9776 105.564 43.9776 105.551C44.0145 105.047 44.445 104.654 44.9616 104.69C46.167 104.777 47.3724 104.801 48.5778 104.777H48.6147C49.1067 104.777 49.5249 105.182 49.5372 105.674C49.5495 106.191 49.1436 106.609 48.627 106.622C48.3318 106.634 48.0243 106.634 47.6799 106.634ZM52.317 106.376C51.8496 106.376 51.456 106.019 51.4068 105.551C51.3945 105.515 51.3945 105.49 51.3945 105.453C51.3945 104.986 51.7389 104.58 52.2063 104.531C53.424 104.395 54.6294 104.198 55.7856 103.965C55.7856 103.965 55.7979 103.965 55.7979 103.952C56.2899 103.854 56.7942 104.186 56.8926 104.678C56.9049 104.74 56.9049 104.801 56.9049 104.863C56.9049 105.305 56.5974 105.674 56.1669 105.761C54.9369 106.019 53.6823 106.228 52.4277 106.363C52.3908 106.363 52.3539 106.376 52.317 106.376ZM41.2101 106.117C41.1609 106.117 41.1117 106.117 41.0625 106.105H41.0256C41.0133 106.093 41.001 106.093 40.9887 106.093C40.7427 106.056 40.5336 105.92 40.386 105.724C40.2507 105.527 40.1892 105.281 40.2261 105.035C40.2999 104.543 40.7796 104.186 41.2839 104.272H41.3208C41.3331 104.285 41.3454 104.285 41.3577 104.285H41.37C41.8128 104.371 42.1326 104.752 42.1203 105.195V105.342C42.0465 105.785 41.6652 106.117 41.2101 106.117ZM59.5863 104.875C59.1804 104.875 58.8237 104.617 58.7007 104.223C58.6761 104.137 58.6638 104.039 58.6638 103.94C58.6761 103.534 58.9344 103.19 59.328 103.067C60.4473 102.735 61.6035 102.329 62.7474 101.874C63.2148 101.689 63.7683 101.923 63.9528 102.378C64.002 102.501 64.0143 102.624 64.0143 102.747C64.0143 103.116 63.7806 103.448 63.4362 103.583C62.2677 104.051 61.0623 104.469 59.8569 104.838C59.7708 104.863 59.6847 104.875 59.5863 104.875ZM66.4743 102.107C66.1299 102.107 65.8101 101.923 65.6502 101.603C65.5887 101.48 65.5518 101.357 65.5518 101.21C65.5395 100.865 65.7363 100.533 66.0561 100.373C67.1385 99.8196 68.2086 99.2046 69.2172 98.5773C69.6354 98.3067 70.2258 98.442 70.4841 98.8602C70.5702 99.0078 70.6194 99.1677 70.6317 99.3399C70.6317 99.6597 70.4718 99.9549 70.2012 100.127C69.1434 100.804 68.0241 101.431 66.8925 102.009C66.7695 102.083 66.6219 102.107 66.4743 102.107ZM72.7596 98.1468C72.4644 98.1468 72.1938 98.0238 72.0216 97.7901C71.8986 97.6302 71.8371 97.4457 71.8371 97.2366C71.8248 96.9537 71.9601 96.6708 72.1938 96.4986C73.1409 95.7729 74.0757 94.9857 74.9736 94.1616C75.3303 93.8295 75.9453 93.8541 76.2774 94.2231C76.4373 94.383 76.5234 94.6044 76.5234 94.8381C76.5234 95.0964 76.4127 95.3424 76.2282 95.5146C75.3057 96.3633 74.334 97.1874 73.3131 97.9623C73.1532 98.0853 72.9564 98.1468 72.7596 98.1468ZM78.2085 93.1284C77.9871 93.1284 77.7657 93.0423 77.5935 92.8824C77.3967 92.7102 77.286 92.4642 77.286 92.2059C77.286 91.9722 77.3721 91.7508 77.532 91.5909C78.3438 90.693 79.1187 89.7459 79.8321 88.7988L79.8444 88.7865C80.1396 88.3929 80.7423 88.3068 81.1359 88.602C81.3696 88.7865 81.5049 89.0571 81.5049 89.3523C81.5049 89.5491 81.4434 89.7336 81.3204 89.8935C80.5701 90.9021 79.746 91.8861 78.8973 92.8209C78.7251 93.0177 78.4791 93.1284 78.2085 93.1284ZM82.6857 87.1998C82.5135 87.1998 82.3413 87.1629 82.1937 87.0645C81.9231 86.8923 81.7632 86.5971 81.7632 86.2773C81.7632 86.1051 81.8124 85.9329 81.8985 85.7976C82.5381 84.7644 83.1408 83.7066 83.682 82.6242C83.9034 82.1814 84.4692 81.9969 84.9243 82.2183C85.2441 82.3782 85.4286 82.698 85.4286 83.0547C85.4286 83.2023 85.3917 83.3376 85.3302 83.4606C84.7521 84.5922 84.1248 85.7115 83.4729 86.7693C83.3007 87.0399 83.0055 87.1998 82.6857 87.1998ZM86.0313 80.5824C85.9083 80.5824 85.7976 80.5578 85.6869 80.5086C85.3425 80.3733 85.1088 80.0412 85.1088 79.6722C85.1088 79.5492 85.1211 79.4262 85.1703 79.3155C85.6131 78.1962 86.019 77.04 86.3511 75.8838C86.4987 75.4041 87.0276 75.1212 87.5073 75.2565C87.8886 75.3672 88.1592 75.7239 88.1592 76.1298C88.1592 76.2159 88.1469 76.3143 88.1223 76.4004C87.7656 77.6058 87.3474 78.8235 86.88 79.992C86.7447 80.3487 86.4126 80.5824 86.0313 80.5824ZM88.1346 73.4607C88.0731 73.4607 88.0116 73.4484 87.9501 73.4361C87.5196 73.35 87.2121 72.981 87.2121 72.5382C87.2121 72.4767 87.2121 72.4152 87.2244 72.3537C87.4581 71.1852 87.6426 69.9675 87.7779 68.7621C87.8271 68.2578 88.2822 67.8888 88.7865 67.9503C89.2662 67.9995 89.6229 68.3931 89.6229 68.8605C89.6229 68.8974 89.6106 68.9343 89.6106 68.9589C89.4753 70.2012 89.2908 71.4681 89.0325 72.7104C88.9464 73.1409 88.5651 73.4607 88.1346 73.4607ZM88.9218 66.0807C88.3929 66.0684 87.987 65.6502 87.9993 65.1336C87.9993 64.9368 87.9993 64.7277 87.9993 64.5186C87.9993 63.51 87.9624 62.5014 87.8886 61.5051C87.8886 61.4805 87.8886 61.4436 87.8886 61.4067C87.9009 60.9393 88.2699 60.558 88.7373 60.5211C89.2539 60.4842 89.6844 60.8532 89.7213 61.3575C89.7336 61.3575 89.7336 61.3698 89.7336 61.3698V61.4313C89.8074 62.4522 89.8443 63.4854 89.8443 64.5186V65.1582C89.832 65.6748 89.4261 66.0807 88.9218 66.0807ZM88.356 58.6761C87.9132 58.6761 87.5319 58.344 87.4581 57.9012C87.249 56.7204 87.003 55.515 86.6955 54.3465C86.6709 54.2727 86.6709 54.1989 86.6709 54.1128C86.6586 53.6946 86.9538 53.3256 87.3597 53.2272C87.8394 53.0919 88.356 53.3994 88.479 53.8791C88.7988 55.1214 89.0694 56.3637 89.2662 57.5937C89.2785 57.6429 89.2785 57.6921 89.2785 57.729C89.2908 58.1964 88.971 58.59 88.5159 58.6638C88.4667 58.6638 88.4052 58.6761 88.356 58.6761ZM86.4864 51.4929C86.1051 51.4929 85.7607 51.2469 85.6254 50.8779C85.2195 49.734 84.7521 48.6024 84.2478 47.52C84.1863 47.3847 84.1617 47.2494 84.1617 47.1141C84.1617 46.7574 84.3708 46.4376 84.6906 46.29C85.1457 46.0809 85.7115 46.29 85.9206 46.7451C86.4495 47.889 86.9415 49.0698 87.3597 50.2506C87.3966 50.3613 87.4089 50.4597 87.4089 50.5704C87.4089 50.9517 87.1629 51.3084 86.8062 51.4314C86.7078 51.4683 86.5971 51.4929 86.4864 51.4929ZM83.3745 44.7525C83.0424 44.7525 82.7349 44.5803 82.575 44.2974C81.96 43.2396 81.3081 42.2187 80.6193 41.2347C80.5086 41.0871 80.4471 40.9026 80.4471 40.7181C80.4348 40.4229 80.5824 40.1277 80.8284 39.9555C81.2343 39.6726 81.837 39.771 82.1199 40.1769C82.8579 41.2224 83.5467 42.2925 84.174 43.3749C84.2601 43.5102 84.297 43.6824 84.297 43.8546C84.2847 44.1744 84.1125 44.4696 83.8296 44.6295C83.6943 44.7156 83.5344 44.7525 83.3745 44.7525ZM79.0941 38.6886C78.8235 38.6886 78.5652 38.5779 78.3807 38.3688C77.6181 37.4586 76.7817 36.573 75.9084 35.7243C75.7362 35.5521 75.6378 35.3184 75.6255 35.0724C75.6255 34.8264 75.7239 34.5927 75.8961 34.4082C76.2405 34.0638 76.8432 34.0515 77.1999 34.3959C78.0978 35.2815 78.9711 36.2163 79.7829 37.1757C79.9305 37.3356 80.0043 37.5447 80.0043 37.7538C80.0166 38.0367 79.8936 38.295 79.6845 38.4795C79.5246 38.6148 79.3032 38.6886 79.0941 38.6886ZM73.7805 33.5103C73.5714 33.5103 73.3623 33.4365 73.2024 33.3012C72.2676 32.5386 71.2959 31.8129 70.2996 31.1364C70.2873 31.1364 70.2873 31.1364 70.2873 31.1364C70.029 30.9642 69.8814 30.669 69.8814 30.3615C69.8814 30.177 69.9306 30.0048 70.0413 29.8572C70.3119 29.4513 70.9146 29.3283 71.3205 29.5989C72.366 30.3123 73.3869 31.0749 74.3709 31.8744C74.58 32.0466 74.703 32.3049 74.703 32.5755C74.703 32.7969 74.6292 33.006 74.4939 33.1659C74.3217 33.3873 74.0634 33.5103 73.7805 33.5103ZM67.6305 29.3529C67.4706 29.3529 67.323 29.3037 67.1877 29.2299C66.1422 28.6518 65.0475 28.1106 63.9282 27.6186C63.5961 27.471 63.3747 27.1389 63.387 26.7576C63.387 26.6346 63.4116 26.5239 63.4608 26.4009C63.6576 25.9581 64.2234 25.7367 64.6785 25.9335C65.847 26.4501 66.9909 27.0159 68.0733 27.6186C68.3808 27.7785 68.553 28.0983 68.553 28.4304C68.553 28.5903 68.5161 28.7379 68.4423 28.8732C68.2824 29.1684 67.9626 29.3529 67.6305 29.3529ZM60.8409 26.3517C60.7425 26.3517 60.6441 26.3394 60.5457 26.3148C59.4141 25.9212 58.2333 25.5891 57.0525 25.3062C56.6466 25.2078 56.3514 24.8388 56.3514 24.4206C56.3514 24.3468 56.3514 24.273 56.376 24.1869C56.4867 23.7072 56.991 23.3997 57.483 23.5104C58.713 23.8056 59.943 24.1623 61.1361 24.5559C61.5174 24.6912 61.7757 25.0479 61.7634 25.4538C61.7634 25.5522 61.7511 25.6383 61.7142 25.7244C61.5912 26.1057 61.2345 26.3517 60.8409 26.3517ZM53.6208 24.6297C53.5716 24.6297 53.5347 24.6297 53.4855 24.6174C52.2924 24.4452 51.087 24.3222 49.8693 24.2607C49.3896 24.2361 48.996 23.8302 48.996 23.3382C48.996 23.3259 48.996 23.3013 48.996 23.289C49.0329 22.7847 49.4634 22.3911 49.9677 22.4157C51.2223 22.4895 52.4892 22.6125 53.7561 22.797C54.1989 22.8585 54.5433 23.2398 54.5433 23.6949C54.5433 23.7441 54.5433 23.7933 54.531 23.8425C54.4695 24.2853 54.0759 24.6297 53.6208 24.6297ZM42.5016 24.5436C42.0342 24.5436 41.6406 24.1992 41.5914 23.7318C41.5176 23.2275 41.8743 22.7724 42.3786 22.6986C43.6209 22.5387 44.8878 22.4403 46.167 22.3911H46.2039C46.6959 22.3911 47.1018 22.7724 47.1264 23.2767V23.3259C47.1264 23.8056 46.7451 24.1992 46.2531 24.2238C46.2531 24.2361 46.2408 24.2361 46.2408 24.2361H46.2039H46.1793C44.9985 24.2853 43.7931 24.3837 42.6246 24.5313C42.5754 24.5436 42.5385 24.5436 42.5016 24.5436Z" fill="#BA945E"/>
<path d="M41.1351 106.106C41.0859 106.106 41.0354 106.102 40.9862 106.094C40.3651 105.993 39.7464 105.879 39.1326 105.751C38.6332 105.646 38.3134 105.158 38.418 104.658C38.5225 104.159 39.0133 103.842 39.5102 103.944C40.0982 104.067 40.6886 104.176 41.2826 104.273C41.7857 104.355 42.1277 104.828 42.0453 105.331C41.9715 105.784 41.5791 106.106 41.1351 106.106Z" fill="#BA945E"/>
<path d="M42.8349 29.7982C42.6984 29.7982 42.5606 29.7687 42.4302 29.7047L34.8596 26.0024C34.616 25.8831 34.4377 25.6629 34.3713 25.3997C34.3049 25.1365 34.3577 24.8573 34.5152 24.6371L39.3011 17.9434C39.5975 17.5289 40.1732 17.433 40.5877 17.7294C41.0022 18.0258 41.0981 18.6015 40.8017 19.016L36.6505 24.8241L43.242 28.0479C43.6996 28.2717 43.889 28.824 43.6652 29.2816C43.504 29.6075 43.1756 29.7982 42.8349 29.7982Z" fill="#BA945E"/>
</svg>
