<svg width="18" height="14" viewBox="0 0 18 14" fill="none" xmlns="http://www.w3.org/2000/svg">
<path d="M16.7071 0.433829L16.4122 0.53753L0.407644 6.12954C0.294227 6.16355 0.195653 6.2331 0.127371 6.32728C0.05909 6.42145 0.0249613 6.53494 0.0303351 6.64995C0.0357089 6.76496 0.0802813 6.87499 0.157066 6.96279C0.23385 7.05059 0.338507 7.11121 0.454631 7.13513L4.59754 8.23499L5.37038 10.4347L6.14323 12.6344C6.18763 12.7423 6.25849 12.838 6.34968 12.9132C6.44087 12.9885 6.54962 13.041 6.66649 13.0662C6.78336 13.0915 6.90481 13.0886 7.02031 13.058C7.1358 13.0274 7.24185 12.9699 7.32923 12.8906L9.46954 10.9297L13.6724 13.6935C14.186 14.0328 14.9183 13.7814 15.0496 13.2221L17.8331 1.29486C17.9692 0.70408 17.3276 0.21857 16.7071 0.433829ZM14.664 3.08135L7.43293 8.81321L7.09268 9.08346C7.01793 9.14093 6.96914 9.2243 6.95658 9.316L6.88043 9.92564L6.67142 11.6383C6.67314 11.6591 6.66625 11.6798 6.65228 11.6957C6.6383 11.7116 6.61838 11.7215 6.59689 11.7231C6.57541 11.7248 6.55412 11.7181 6.53771 11.7046C6.5213 11.691 6.51112 11.6717 6.5094 11.6508L5.92126 9.93978L5.31368 8.18786C5.28798 8.10911 5.29139 8.02414 5.32333 7.94756C5.35527 7.87099 5.41373 7.80761 5.48866 7.76834L13.013 3.58572L14.429 2.8001C14.6348 2.68383 14.8454 2.9368 14.664 3.08135Z" fill="url(#paint0_linear_1_710)"/>
<defs>
<linearGradient id="paint0_linear_1_710" x1="0.027969" y1="7.11767" x2="17.8472" y2="7.11767" gradientUnits="userSpaceOnUse">
<stop stop-color="#9F734C"/>
<stop offset="0.13" stop-color="#BA945E"/>
<stop offset="0.28" stop-color="#D1B16E"/>
<stop offset="0.42" stop-color="#E2C579"/>
<stop offset="0.56" stop-color="#ECD180"/>
<stop offset="0.7" stop-color="#F0D683"/>
<stop offset="0.75" stop-color="#E7CC7D"/>
<stop offset="0.84" stop-color="#D2B16E"/>
<stop offset="0.95" stop-color="#AF8757"/>
<stop offset="1" stop-color="#9F734C"/>
</linearGradient>
</defs>
</svg>
