<svg width="22" height="12" viewBox="0 0 22 12" fill="none" xmlns="http://www.w3.org/2000/svg">
<path d="M0.988217 0.890947C1.92683 0.890947 3.93079 0.890947 4.60406 0.890947C4.74267 0.890947 4.86941 0.974115 4.92881 1.10085C5.76049 2.90679 6.7704 4.54243 7.9902 5.98402C8.09317 6.15431 8.34663 6.13451 8.42584 5.95233C8.80604 5.0256 9.51099 2.77214 8.14861 1.16818C8.02584 1.0256 8.07732 0.79986 8.24762 0.728572C9.62584 0.154315 10.9763 0.0711465 12.2872 0.657285C12.5645 0.780057 12.7427 1.05332 12.7427 1.35827L13.0516 5.99986C13.0516 6.2058 13.2417 6.37214 13.4437 6.32857C14.9565 6.00778 15.8476 3.74243 16.7268 1.37808C16.8338 1.08501 17.111 0.890947 17.4199 0.890947H20.7506C21.0239 0.890947 21.2417 1.13253 21.1942 1.40184C20.8813 3.08105 19.1942 5.2553 18.311 6.30085C18.006 6.66125 18.0021 7.19194 18.311 7.55233L21.2892 11.0969C21.5031 11.3504 21.3209 11.7385 20.9882 11.7385H17.2179C16.909 11.7385 16.612 11.6078 16.4021 11.382L13.7645 9.18798C13.6258 9.03748 13.3684 8.986 13.2417 9.14045C12.9169 9.53649 12.9407 10.0276 12.7862 11.1405C12.7387 11.489 12.4258 11.7385 12.0734 11.7385H9.49515C9.12683 11.7385 8.76643 11.6632 8.43376 11.5048C6.95653 10.8038 2.91297 8.31669 0.643663 1.36224C0.568416 1.12857 0.742673 0.886989 0.988217 0.886989V0.890947Z" fill="url(#paint0_linear_1_718)"/>
<defs>
<linearGradient id="paint0_linear_1_718" x1="0.623861" y1="5.99986" x2="21.3763" y2="5.99986" gradientUnits="userSpaceOnUse">
<stop stop-color="#9F734C"/>
<stop offset="0.13" stop-color="#BA945E"/>
<stop offset="0.28" stop-color="#D1B16E"/>
<stop offset="0.42" stop-color="#E2C579"/>
<stop offset="0.56" stop-color="#ECD180"/>
<stop offset="0.7" stop-color="#F0D683"/>
<stop offset="0.75" stop-color="#E7CC7D"/>
<stop offset="0.84" stop-color="#D2B16E"/>
<stop offset="0.95" stop-color="#AF8757"/>
<stop offset="1" stop-color="#9F734C"/>
</linearGradient>
</defs>
</svg>
