<svg width="36" height="26" viewBox="0 0 36 26" fill="none" xmlns="http://www.w3.org/2000/svg">
<path d="M29.1261 0.209717H6.87397C5.98472 0.209717 5.10418 0.384943 4.28267 0.725381C3.46117 1.06582 2.7148 1.5648 2.08621 2.1938C1.45762 2.8228 0.959133 3.56951 0.619238 4.39124C0.279343 5.21297 0.104699 6.09362 0.105287 6.98287V19.0171C0.104699 19.9063 0.279343 20.787 0.619238 21.6087C0.959133 22.4305 1.45762 23.1772 2.08621 23.8062C2.7148 24.4352 3.46117 24.9341 4.28267 25.2746C5.10418 25.615 5.98472 25.7902 6.87397 25.7902H29.1261C30.0153 25.7902 30.8959 25.615 31.7174 25.2746C32.5389 24.9341 33.2853 24.4352 33.9138 23.8062C34.5424 23.1772 35.0409 22.4305 35.3808 21.6087C35.7207 20.787 35.8953 19.9063 35.8948 19.0171V6.98287C35.8953 6.09362 35.7207 5.21297 35.3808 4.39124C35.0409 3.56951 34.5424 2.8228 33.9138 2.1938C33.2853 1.5648 32.5389 1.06582 31.7174 0.725381C30.8959 0.384943 30.0153 0.209717 29.1261 0.209717ZM13.2848 18.4847V7.51524L22.7153 13L13.2848 18.4847Z" fill="#222222"/>
</svg>
